<svg xmlns="http://www.w3.org/2000/svg" x="0px" y="0px" width="24" height="24" viewBox="0,0,256,256"
style="fill:#000000;">
<g fill="#ffca28" fill-rule="nonzero" stroke="none" stroke-width="1" stroke-linecap="butt" stroke-linejoin="miter" stroke-miterlimit="10" stroke-dasharray="" stroke-dashoffset="0" font-family="none" font-weight="none" font-size="none" text-anchor="none" style="mix-blend-mode: normal"><g transform="scale(10.66667,10.66667)"><path d="M11.98438,-0.01367c-0.55152,0.00862 -0.99193,0.46214 -0.98437,1.01367v1c-0.0051,0.36064 0.18438,0.69608 0.49587,0.87789c0.3115,0.18181 0.69676,0.18181 1.00825,0c0.3115,-0.18181 0.50097,-0.51725 0.49587,-0.87789v-1c0.0037,-0.2703 -0.10218,-0.53059 -0.29351,-0.72155c-0.19133,-0.19097 -0.45182,-0.29634 -0.72212,-0.29212zM4.21094,3.21094c-0.40744,0.00008 -0.77411,0.24733 -0.92691,0.62504c-0.1528,0.37771 -0.06119,0.81035 0.23159,1.09371l0.70703,0.70703c0.25082,0.26123 0.62326,0.36646 0.9737,0.2751c0.35044,-0.09136 0.62411,-0.36503 0.71546,-0.71546c0.09136,-0.35044 -0.01387,-0.72288 -0.2751,-0.9737l-0.70703,-0.70703c-0.18841,-0.19474 -0.44778,-0.30469 -0.71875,-0.30469zM19.75781,3.21289c-0.2598,0.00774 -0.50638,0.11632 -0.6875,0.30273l-0.70703,0.70703c-0.26123,0.25082 -0.36645,0.62326 -0.2751,0.9737c0.09136,0.35043 0.36503,0.6241 0.71546,0.71546c0.35043,0.09136 0.72288,-0.01387 0.9737,-0.2751l0.70703,-0.70703c0.29576,-0.28749 0.38469,-0.72707 0.22393,-1.10691c-0.16075,-0.37985 -0.53821,-0.62204 -0.9505,-0.60988zM12,5c-3.86,0 -7,3.14 -7,7c0,2.785 1.639,5.18845 4,6.31445v2.68555c0,1.103 0.897,2 2,2h2c1.103,0 2,-0.897 2,-2v-2.68555c2.361,-1.126 4,-3.52945 4,-6.31445c0,-3.86 -3.14,-7 -7,-7zM1,11c-0.36064,-0.0051 -0.69608,0.18438 -0.87789,0.49587c-0.18181,0.3115 -0.18181,0.69676 0,1.00825c0.18181,0.3115 0.51725,0.50097 0.87789,0.49587h1c0.36064,0.0051 0.69608,-0.18438 0.87789,-0.49587c0.18181,-0.3115 0.18181,-0.69676 0,-1.00825c-0.18181,-0.3115 -0.51725,-0.50097 -0.87789,-0.49587zM22,11c-0.36064,-0.0051 -0.69608,0.18438 -0.87789,0.49587c-0.18181,0.3115 -0.18181,0.69676 0,1.00825c0.18181,0.3115 0.51725,0.50097 0.87789,0.49587h1c0.36064,0.0051 0.69608,-0.18438 0.87789,-0.49587c0.18181,-0.3115 0.18181,-0.69676 0,-1.00825c-0.18181,-0.3115 -0.51725,-0.50097 -0.87789,-0.49587zM4.91016,18.06055c-0.2598,0.00774 -0.50638,0.11632 -0.6875,0.30273l-0.70703,0.70703c-0.26123,0.25082 -0.36646,0.62326 -0.2751,0.9737c0.09136,0.35044 0.36503,0.6241 0.71546,0.71546c0.35044,0.09136 0.72288,-0.01387 0.9737,-0.2751l0.70703,-0.70703c0.29576,-0.28749 0.38469,-0.72707 0.22393,-1.10691c-0.16075,-0.37985 -0.53821,-0.62204 -0.9505,-0.60988zM19.06055,18.06055c-0.40692,0.00011 -0.77321,0.24676 -0.92633,0.62377c-0.15312,0.37701 -0.06255,0.80922 0.22907,1.09303l0.70703,0.70703c0.25082,0.26123 0.62326,0.36645 0.9737,0.27509c0.35043,-0.09136 0.6241,-0.36502 0.71546,-0.71546c0.09136,-0.35043 -0.01386,-0.72288 -0.27509,-0.9737l-0.70703,-0.70703c-0.18827,-0.19353 -0.4468,-0.30272 -0.7168,-0.30273z"></path></g></g>
</svg>